<?xml version="1.0" standalone="no"?>
<!DOCTYPE svg PUBLIC "-//W3C//DTD SVG 20010904//EN"
 "http://www.w3.org/TR/2001/REC-SVG-20010904/DTD/svg10.dtd">
<svg version="1.0" xmlns="http://www.w3.org/2000/svg"
 width="300.000000pt" height="300.000000pt" viewBox="0 0 300.000000 300.000000"
 preserveAspectRatio="xMidYMid meet">
<metadata>
Created by potrace 1.10, written by Peter Selinger 2001-2011
</metadata>
<g transform="translate(0.000000,300.000000) scale(0.100000,-0.100000)"
fill="#000000" stroke="none">
<path d="M1372 2675 c-165 -31 -289 -89 -392 -184 -58 -53 -79 -61 -100 -36
-7 8 -18 15 -24 15 -6 0 -24 11 -40 25 -16 14 -32 25 -35 25 -8 -1 102 -100
112 -100 4 0 7 -4 7 -10 0 -18 -14 -10 -83 45 -107 86 -120 84 -29 -5 46 -45
81 -84 78 -88 -4 -3 -27 14 -51 38 -53 52 -61 41 -10 -13 19 -20 35 -42 35
-47 0 -15 -28 -12 -37 3 -4 7 -35 35 -68 63 -58 48 -62 49 -110 44 l-50 -5 49
-3 c45 -3 56 -9 128 -75 44 -39 75 -73 69 -75 -7 -2 -45 26 -85 62 -70 62 -77
66 -122 66 -35 0 -45 -3 -34 -10 8 -5 29 -10 45 -10 32 -1 65 -20 65 -39 0 -6
-7 -11 -15 -11 -20 0 -40 -43 -29 -62 17 -29 63 -78 72 -78 6 0 13 7 16 16 9
24 7 28 -9 14 -15 -12 -35 -6 -35 11 0 5 7 9 15 9 8 0 15 5 15 11 0 5 5 7 10
4 6 -4 10 5 10 20 l0 26 30 -21 c36 -26 37 -35 5 -98 -14 -28 -25 -57 -25 -66
0 -11 -10 -16 -32 -17 -31 -2 -31 -2 -5 -6 15 -2 27 -11 27 -19 0 -8 -2 -14
-5 -14 -20 0 -79 42 -132 92 -53 51 -64 58 -81 49 -24 -13 -46 7 -40 36 7 37
38 24 115 -46 55 -51 84 -71 103 -71 32 0 41 7 33 26 -3 8 -19 14 -38 14 -25
0 -45 10 -77 39 -101 92 -111 96 -141 63 -33 -36 -9 -82 42 -82 18 0 38 -11
57 -31 24 -26 26 -30 8 -25 -15 5 -30 -4 -62 -39 -46 -50 -49 -60 -26 -93 13
-19 13 -22 0 -22 -8 0 -18 -4 -21 -10 -4 -6 35 -10 111 -10 126 0 147 7 44 15
-35 2 -67 8 -71 12 -12 12 14 57 34 61 10 2 27 -4 37 -13 13 -12 27 -15 54
-10 l36 7 0 -45 0 -45 -118 -4 c-108 -3 -121 -5 -150 -28 -38 -31 -51 -66 -29
-87 11 -12 45 -16 153 -18 139 -2 139 -2 142 -26 l3 -24 -103 2 c-57 1 -112 2
-122 3 -11 0 -26 -5 -34 -13 -12 -13 -12 -19 0 -43 l13 -29 131 4 130 3 13
-38 c7 -22 15 -45 17 -51 4 -10 -20 -13 -101 -13 -68 0 -104 4 -100 10 3 6 47
10 97 10 109 0 112 8 4 14 -65 4 -80 8 -96 28 -11 13 -19 17 -20 11 0 -7 5
-13 10 -13 14 0 13 -37 -2 -46 -6 -4 -17 1 -25 11 -11 16 -13 17 -13 2 0 -35
39 -47 152 -47 80 0 108 -3 108 -12 0 -10 -30 -14 -109 -15 -97 -3 -110 -1
-126 17 -24 27 -51 25 -70 -4 -13 -19 -14 -29 -5 -46 9 -17 20 -21 58 -20 26
0 90 -4 142 -9 56 -5 96 -5 98 0 6 17 47 9 59 -11 15 -24 3 -33 -32 -24 -29 7
-66 -20 -91 -68 -16 -31 -35 -36 -55 -12 -17 20 0 49 30 49 11 0 31 11 43 23
l22 22 -35 0 c-48 0 -93 -45 -83 -84 7 -31 37 -50 64 -41 10 3 30 25 44 49 25
43 66 68 66 41 0 -7 -3 -15 -7 -17 -5 -1 -42 -39 -83 -83 -87 -93 -71 -83 58
34 52 48 92 77 92 68 0 -20 -185 -195 -213 -200 -19 -4 -18 -4 5 -6 31 -1 101
51 170 127 25 29 51 52 56 52 19 0 21 -31 3 -48 -10 -9 -57 -52 -105 -96 -47
-43 -86 -83 -86 -88 0 -6 50 36 110 92 61 57 114 99 118 95 4 -4 -49 -61 -118
-126 -132 -126 -159 -172 -40 -70 39 34 75 59 81 56 5 -4 12 1 15 9 3 9 11 13
17 9 6 -4 8 0 4 11 -4 10 -3 15 4 11 15 -10 38 13 33 33 -2 9 0 24 6 32 9 13
14 11 35 -12 13 -16 27 -28 31 -28 4 0 30 -17 58 -38 107 -80 229 -127 356
-138 95 -8 98 -10 66 -43 -15 -16 -38 -52 -51 -80 -13 -28 -26 -51 -29 -51 -2
0 -17 28 -33 63 -37 78 -65 96 -122 77 -33 -11 -46 -11 -72 0 -54 23 -121 18
-177 -13 l-51 -27 -25 25 c-48 48 -97 26 -111 -50 l-7 -39 -32 37 c-50 58 -96
88 -117 77 -26 -14 -29 -13 -29 14 0 13 -9 35 -21 50 -26 33 -68 35 -96 4 -32
-37 -35 -46 -18 -72 15 -23 15 -27 0 -50 -16 -23 -16 -27 1 -55 14 -24 16 -33
6 -43 -7 -7 -12 -43 -12 -94 0 -73 3 -86 24 -108 27 -30 73 -34 92 -8 12 16
14 16 30 0 26 -25 8 -38 -56 -38 -71 0 -95 -18 -86 -63 10 -48 25 -60 73 -54
26 3 44 0 47 -7 6 -14 35 21 43 53 4 16 1 27 -11 33 -24 14 -11 25 24 20 30
-4 43 -22 15 -22 -11 0 -14 -7 -9 -24 4 -16 1 -27 -10 -33 -10 -5 -12 -13 -6
-23 16 -26 50 16 50 62 0 36 2 38 31 38 17 0 28 -4 24 -10 -3 -5 -12 -7 -20
-3 -8 3 -15 0 -15 -6 0 -6 7 -11 15 -11 21 0 19 -18 -2 -23 -14 -4 -12 -5 5
-6 34 -2 26 -21 -9 -21 -20 0 -29 -4 -26 -12 3 -12 60 -15 207 -9 19 0 67 0
105 0 135 -2 187 5 199 26 6 11 12 22 13 24 2 2 12 -8 23 -22 16 -20 29 -26
59 -25 21 0 47 -3 59 -6 12 -4 31 -2 43 4 34 19 49 -4 22 -32 -21 -20 -25 -21
-63 -8 -37 12 -43 12 -69 -7 -27 -21 -37 -21 -392 -19 -201 2 -374 -1 -385 -5
-10 -4 -17 -8 -14 -9 11 -2 386 -8 568 -9 120 -1 192 -5 192 -11 0 -6 -135
-10 -384 -10 -358 0 -385 1 -389 17 -3 13 -5 14 -6 3 -2 -39 3 -40 405 -42
l389 -3 18 -22 c23 -29 60 -29 86 -2 l19 21 7 -21 c10 -33 63 -71 99 -71 39 0
83 31 97 68 l10 25 22 -22 c29 -26 51 -27 78 0 19 19 30 20 261 19 285 -1 548
9 548 22 0 5 -169 7 -390 6 -303 -2 -390 0 -390 9 0 10 89 13 383 15 210 2
388 -1 395 -6 7 -5 12 -4 12 2 0 6 -9 14 -21 17 -11 4 -194 7 -405 7 -211 -1
-384 3 -384 7 0 5 -14 14 -31 21 -24 10 -35 10 -54 0 -20 -11 -27 -10 -54 9
-30 22 -33 51 -5 51 10 0 14 13 14 45 0 25 5 45 10 45 15 0 12 -87 -2 -93 -10
-4 -10 -7 0 -18 9 -10 15 -10 23 -2 9 9 16 9 30 0 14 -9 22 -7 38 7 17 16 22
16 48 3 17 -9 47 -13 78 -11 60 5 164 7 225 5 25 0 63 0 85 2 22 2 50 -1 62
-6 15 -7 27 -6 35 0 16 13 69 14 84 2 7 -6 30 -6 58 1 32 7 60 7 93 0 43 -10
49 -9 70 12 22 23 23 26 10 63 l-14 40 -67 3 c-68 3 -86 22 -21 22 51 0 101
48 109 104 9 57 -7 91 -58 122 -39 23 -39 24 -11 18 26 -4 32 -1 42 22 16 34
16 59 3 84 -8 15 -5 19 15 24 29 7 42 44 26 73 -7 14 -22 20 -50 21 -45 2 -71
-17 -71 -53 0 -19 -7 -24 -43 -29 -23 -4 -55 -13 -71 -21 -37 -19 -56 -19 -85
2 -31 21 -127 21 -170 -2 -30 -15 -34 -15 -57 0 -20 13 -50 16 -137 16 -97 -1
-115 -3 -140 -22 l-29 -21 -22 21 c-27 25 -45 26 -84 4 -27 -16 -30 -15 -55 3
-15 10 -27 22 -27 27 0 4 23 7 51 7 80 0 257 55 334 103 10 6 48 33 84 60 35
26 70 47 77 47 7 0 32 -19 54 -41 34 -35 37 -41 18 -36 -21 5 -20 4 6 -18 17
-13 33 -22 37 -19 4 2 31 -16 59 -41 28 -25 55 -45 61 -45 11 0 -103 116 -184
187 -27 23 -43 44 -38 48 18 10 42 -9 149 -118 56 -57 102 -99 102 -92 0 7
-50 62 -112 124 -81 81 -108 115 -100 123 8 8 36 -13 103 -76 50 -47 98 -86
105 -86 14 0 -109 119 -168 163 -16 11 -28 24 -28 29 0 22 33 0 119 -77 51
-47 100 -85 108 -85 8 0 -7 19 -34 41 -92 79 -153 140 -153 153 0 7 8 20 18
29 13 12 44 16 142 17 69 1 138 0 155 -2 24 -2 31 2 39 24 18 50 -49 94 -74
48 -9 -17 -23 -20 -108 -23 l-97 -3 100 -2 c89 -2 102 0 118 18 28 34 69 0 43
-36 -9 -12 -19 -15 -32 -9 -10 4 -77 6 -148 5 -89 -1 -126 2 -121 9 3 6 13 11
21 11 12 0 19 24 15 57 -1 6 3 14 9 18 5 3 10 16 10 28 0 41 16 52 87 58 l68
7 -65 -1 c-71 0 -74 1 -66 23 3 8 7 32 8 54 l3 38 137 3 c75 1 141 6 147 9 12
8 14 45 3 62 -11 17 -52 36 -52 24 0 -6 -44 -10 -120 -10 -154 0 -161 18 -8
22 78 2 113 7 116 16 3 9 -24 12 -112 12 -71 0 -116 4 -116 10 0 6 36 10 88
10 57 0 82 3 72 9 -8 6 -18 7 -24 4 -5 -3 -6 -1 -2 5 4 7 16 12 27 12 55 0 77
45 39 77 -11 10 -20 25 -20 34 0 24 -26 42 -51 36 -18 -5 -17 -1 11 28 18 19
37 32 42 29 17 -11 57 6 63 27 9 28 -20 69 -48 69 -13 0 -36 -14 -52 -30 -51
-53 -118 -90 -163 -90 -22 0 -44 5 -47 10 -4 6 7 10 25 10 19 0 29 4 25 10 -4
6 -18 9 -32 8 -21 -2 -29 3 -40 30 -13 32 -12 34 19 65 l33 32 3 -31 c2 -22
11 -35 29 -43 16 -7 23 -17 19 -26 -3 -8 -1 -15 4 -15 6 0 10 5 10 11 0 6 7
17 15 25 24 24 19 70 -10 92 -30 24 -23 31 45 48 l45 12 -50 1 c-48 1 -53 -2
-118 -60 -37 -34 -71 -58 -75 -54 -13 13 130 134 163 138 l30 4 -32 1 c-21 1
-40 -5 -53 -18 -11 -11 -23 -20 -26 -20 -4 0 -27 -19 -52 -41 -34 -32 -46 -38
-53 -28 -6 10 0 21 16 37 33 30 32 39 -1 13 -37 -29 -55 -26 -21 4 36 32 35
42 -2 16 -34 -24 -41 -26 -41 -8 0 6 -19 30 -41 52 l-41 40 29 6 c43 8 53 17
53 44 0 29 -34 55 -61 48 -26 -7 -42 -38 -33 -65 7 -23 13 -26 -86 37 -65 42
-173 85 -260 104 -79 18 -211 20 -288 6z m306 -45 c46 -11 122 -39 169 -61 73
-35 102 -57 183 -138 152 -151 218 -300 227 -511 5 -97 2 -129 -16 -200 -66
-262 -247 -456 -511 -551 -53 -19 -91 -24 -205 -27 -164 -4 -241 10 -350 63
-199 99 -341 265 -407 479 -32 102 -32 298 0 409 97 340 376 555 722 556 72 1
131 -5 188 -19z m397 -80 c0 -18 -6 -26 -23 -28 -24 -4 -38 18 -28 44 3 9 15
14 28 12 17 -2 23 -10 23 -28z m259 -222 c8 -14 7 -21 -6 -34 -30 -30 -75 9
-48 42 16 18 39 15 54 -8z m-1624 -3 c10 -12 9 -20 -4 -40 -15 -22 -19 -24
-31 -11 -16 15 -20 48 -8 59 11 11 30 8 43 -8z m1808 -71 c2 -11 -4 -27 -14
-34 -14 -12 -18 -12 -29 3 -11 16 -19 11 -77 -46 -61 -60 -66 -63 -106 -59
-52 5 -55 22 -4 22 34 0 48 9 113 70 76 72 111 85 117 44z m-1824 -184 c20 0
36 -4 36 -10 0 -5 -19 -10 -43 -10 -33 0 -49 6 -67 25 -17 18 -27 22 -36 14
-17 -14 -34 -3 -34 21 0 31 23 29 67 -6 30 -25 51 -34 77 -34z m1760 45 c7
-20 -22 -41 -36 -27 -9 9 -17 7 -34 -9 -14 -13 -41 -23 -68 -26 l-46 -6 0 33
c0 25 3 31 16 26 9 -3 21 -6 27 -7 7 0 3 -4 -8 -9 -16 -7 -14 -9 15 -9 24 0
46 8 70 28 34 29 54 31 64 6z m-1910 -61 c8 -21 -1 -34 -24 -34 -20 0 -30 17
-22 38 6 17 39 15 46 -4z m1891 -4 c0 -8 4 -18 10 -22 20 -14 -9 -23 -86 -27
-75 -3 -79 -2 -79 18 0 12 5 21 10 21 6 0 10 -4 10 -10 0 -16 64 1 79 22 16
22 56 21 56 -2z m63 -3 c4 -20 -25 -34 -40 -19 -15 15 -1 44 19 40 10 -2 19
-11 21 -21z m-1783 -137 c4 -6 -36 -10 -114 -10 -69 0 -122 4 -126 10 -4 6 36
10 114 10 69 0 122 -4 126 -10z m-231 -36 c5 -13 23 -15 116 -12 77 2 111 0
114 -9 8 -19 -265 -23 -281 -4 -9 11 -10 18 -2 28 15 18 46 16 53 -3z m2080
10 c9 -3 16 -14 16 -24 0 -19 -26 -34 -42 -24 -5 3 -63 6 -129 5 -65 -1 -119
0 -119 3 0 14 13 36 22 36 5 0 6 -4 3 -10 -4 -6 32 -10 100 -10 85 0 107 3
111 15 7 16 14 18 38 9z m-2030 -140 c4 -11 27 -14 101 -14 61 0 95 -4 95 -11
0 -7 -34 -9 -100 -7 -55 2 -100 -1 -100 -5 0 -5 -12 -7 -27 -5 -33 4 -44 36
-18 54 19 14 41 9 49 -12z m-2 -194 c12 -18 24 -20 140 -20 78 0 129 -4 133
-10 5 -8 -38 -10 -133 -9 -78 0 -146 -2 -152 -6 -30 -19 -55 26 -28 53 17 17
26 15 40 -8z m2018 -428 c0 -26 -3 -28 -29 -24 -17 2 -32 11 -34 21 -3 11 -5
9 -6 -6 -1 -31 -18 -29 -24 3 -4 25 -3 26 34 21 22 -3 42 -1 45 4 9 16 14 10
14 -19z m-1976 -4 c15 -24 -3 -52 -37 -56 -35 -4 -52 26 -31 57 18 26 51 25
68 -1z m163 -154 c37 -48 75 -95 83 -106 14 -17 15 -9 12 86 l-3 106 30 0 31
0 0 -160 c0 -159 0 -160 -22 -160 -24 0 -40 17 -135 144 l-53 70 0 -107 0
-107 -30 0 -30 0 0 160 0 160 24 0 c19 0 41 -20 93 -86z m423 68 c19 -9 45
-33 58 -52 20 -29 23 -45 20 -95 -4 -72 -26 -106 -84 -135 -82 -41 -170 -11
-212 70 -72 139 76 284 218 212z m151 -29 c11 -27 33 -81 48 -120 l27 -73 42
108 c54 135 53 134 89 130 l30 -3 -67 -155 c-59 -137 -70 -155 -92 -158 -24
-3 -29 5 -73 110 -26 62 -58 134 -71 161 l-24 47 34 0 c32 0 37 -4 57 -47z
m425 -108 c41 -85 74 -157 74 -160 0 -3 -15 -5 -33 -5 -28 0 -36 5 -51 36 -16
34 -19 36 -54 30 -20 -3 -52 -6 -70 -6 -28 0 -36 -5 -45 -30 -9 -25 -17 -30
-44 -30 -18 0 -33 1 -33 3 0 2 23 54 51 117 28 63 59 134 70 158 13 30 24 42
39 42 18 0 35 -27 96 -155z m264 125 c0 -29 -2 -30 -45 -30 l-45 0 0 -130 0
-130 -30 0 -30 0 0 130 0 130 -49 0 c-47 0 -49 1 -53 30 l-5 30 129 0 128 0 0
-30z m241 9 l41 -20 -22 -24 c-21 -22 -25 -23 -44 -10 -36 26 -94 19 -128 -15
-28 -28 -30 -36 -25 -78 9 -78 77 -114 153 -80 23 11 28 10 40 -7 21 -28 18
-32 -31 -51 -112 -42 -214 23 -223 143 -3 48 0 64 20 93 46 68 140 90 219 49z
m236 9 c15 -7 29 -13 31 -14 1 -1 -3 -13 -9 -27 -10 -21 -15 -24 -30 -17 -33
18 -97 12 -109 -10 -13 -23 12 -42 77 -59 47 -13 83 -51 83 -87 0 -13 -13 -38
-28 -55 -36 -40 -101 -50 -166 -25 -41 16 -43 18 -32 41 7 16 16 23 26 19 38
-16 85 -22 105 -14 56 21 41 51 -37 75 -77 25 -104 56 -94 110 12 63 106 96
183 63z m-1899 -41 c3 -21 -2 -28 -22 -33 -54 -13 -86 26 -47 57 29 24 65 11
69 -24z m1201 -38 c28 -10 31 -15 31 -55 0 -24 -4 -44 -10 -44 -5 0 -20 21
-32 48 -12 26 -23 50 -25 55 -5 9 -2 9 36 -4z m184 -43 c-17 -104 97 -221 212
-220 31 1 62 8 78 19 25 16 29 16 61 1 19 -9 41 -16 50 -16 9 0 16 -3 16 -7 0
-5 -69 -9 -154 -10 -85 0 -164 -4 -176 -8 -11 -4 -26 -3 -33 2 -18 14 -256 7
-283 -8 -17 -9 -27 -9 -36 -1 -7 6 -40 11 -73 12 -114 3 -170 4 -210 1 -22 -1
-68 1 -103 5 -41 4 -67 3 -76 -5 -8 -7 -23 -8 -37 -3 -13 4 -87 6 -164 4 -206
-5 -223 -5 -308 1 -73 4 -121 17 -65 17 30 0 48 38 48 101 0 22 3 39 8 38 4 0
33 -32 65 -70 47 -56 63 -69 87 -69 24 0 30 6 42 41 l14 42 34 -30 c52 -45 73
-53 138 -53 73 0 117 26 149 89 12 24 24 46 27 48 3 3 16 -19 29 -49 13 -29
36 -61 50 -71 26 -17 77 -23 77 -9 0 4 9 18 20 32 11 14 19 21 18 15 -1 -5 3
-20 10 -32 19 -34 78 -32 94 2 10 22 17 25 69 25 48 0 63 -4 85 -25 31 -29 94
-36 94 -10 0 8 4 15 9 15 5 0 14 -7 21 -15 7 -8 25 -15 40 -15 34 0 39 13 46
140 6 106 10 124 23 115 5 -3 7 -21 4 -39z m270 16 c9 -8 20 -12 24 -9 3 4 14
-6 24 -22 9 -15 41 -40 70 -55 29 -14 45 -26 35 -26 -9 0 -26 5 -36 10 -13 7
-28 7 -46 0 -19 -8 -30 -8 -38 0 -13 13 -49 13 -79 -1 -19 -9 -31 -7 -55 5
-40 21 -51 59 -26 88 36 39 88 44 127 10z m-1663 -102 l0 -100 -32 0 -33 0 0
100 0 100 33 0 32 0 0 -100z m-50 -211 c0 -21 -4 -39 -10 -39 -5 0 -10 21 -10
46 0 27 4 43 10 39 6 -3 10 -24 10 -46z m71 26 c5 24 7 20 7 -20 l1 -50 -25
30 -26 30 6 -27 c4 -17 2 -28 -4 -28 -5 0 -10 21 -10 48 l1 47 22 -30 22 -29
6 29z m189 -16 c0 -19 5 -29 15 -29 8 0 15 -4 15 -10 0 -5 -11 -10 -25 -10
-23 0 -25 4 -25 46 0 27 4 43 10 39 6 -3 10 -19 10 -36z m60 6 c0 -24 5 -35
15 -35 8 0 15 -4 15 -10 0 -5 -11 -10 -25 -10 -23 0 -25 4 -25 45 0 25 5 45
10 45 6 0 10 -16 10 -35z m210 25 c0 -4 -10 -12 -22 -18 -18 -8 -19 -11 -5
-11 9 -1 17 -5 17 -10 0 -5 -8 -12 -17 -14 -14 -4 -12 -5 5 -6 30 -1 28 -21
-3 -21 -23 0 -25 4 -25 43 0 38 2 42 25 43 14 1 25 -1 25 -6z m60 -17 c0 16 4
26 10 22 12 -8 13 -85 1 -85 -5 0 -16 10 -24 23 l-16 22 0 -28 c-1 -16 -5 -26
-11 -22 -5 3 -10 27 -10 53 l1 47 24 -30 25 -30 0 28z m100 6 c0 -5 -7 -9 -15
-9 -10 0 -15 -10 -15 -30 0 -16 -4 -30 -10 -30 -5 0 -10 16 -10 35 0 21 -5 35
-12 36 -7 1 1 5 17 8 32 8 45 5 45 -10z m90 6 c0 -8 -4 -15 -10 -15 -5 0 -10
-13 -10 -30 0 -16 -4 -30 -10 -30 -5 0 -10 14 -10 30 0 17 -4 30 -10 30 -5 0
-10 7 -10 15 0 10 10 15 30 15 20 0 30 -5 30 -15z m65 -36 c-10 -44 10 -35 30
14 l17 42 19 -44 c19 -42 18 -71 -1 -41 -8 12 -13 13 -30 3 -27 -17 -40 -16
-56 5 -13 16 -13 16 -14 0 0 -37 -20 -16 -20 21 0 42 13 54 43 39 14 -7 17
-16 12 -39z m145 41 c0 -5 -7 -10 -15 -10 -8 0 -15 -4 -15 -10 0 -5 7 -10 15
-10 8 0 15 -4 15 -10 0 -5 -7 -10 -15 -10 -8 0 -15 -7 -15 -15 0 -8 -4 -15
-10 -15 -5 0 -10 18 -10 39 0 33 4 40 23 44 12 2 23 5 25 6 1 0 2 -3 2 -9z
m70 0 c0 -6 -10 -15 -22 -20 -18 -7 -19 -9 -5 -9 21 -1 23 -21 2 -21 -8 0 -15
-9 -15 -21 0 -11 -4 -17 -10 -14 -5 3 -10 24 -10 45 0 39 0 39 53 49 4 0 7 -4
7 -9z m208 -8 c2 -7 -6 -12 -17 -12 -14 0 -21 -6 -21 -20 0 -13 7 -20 20 -20
11 0 20 -4 20 -10 0 -14 -33 -13 -48 2 -17 17 -15 38 5 60 18 20 34 20 41 0z
m143 -22 c5 0 9 8 9 18 0 16 6 18 37 13 32 -5 39 -11 43 -36 3 -17 9 -29 13
-27 4 1 17 2 29 2 20 0 21 1 3 20 -14 16 -15 22 -5 35 13 15 30 12 30 -6 0 -6
-4 -7 -10 -4 -16 10 -11 -7 6 -19 28 -21 7 -44 -42 -44 -42 0 -44 1 -44 28 0
22 -5 29 -25 32 -23 5 -25 2 -25 -31 l-1 -36 -26 30 c-24 27 -26 27 -21 8 4
-13 2 -26 -3 -29 -5 -3 -9 16 -8 43 0 47 1 47 16 26 8 -13 19 -23 24 -23z
m214 20 c4 11 11 18 16 15 5 -4 5 -14 -1 -25 -5 -10 -10 -28 -10 -39 0 -25
-20 -28 -20 -3 0 9 -7 26 -15 36 -22 29 -18 45 5 18 18 -22 19 -22 25 -2z m75
5 c0 -8 -8 -15 -17 -15 -15 0 -14 -3 4 -15 13 -9 20 -22 17 -30 -7 -17 -40
-20 -49 -5 -3 6 4 10 17 10 l23 0 -22 18 c-27 21 -19 37 25 51 1 1 2 -6 2 -14z
m70 -1 c0 -8 -4 -14 -10 -14 -5 0 -10 -13 -10 -30 0 -16 -4 -30 -10 -30 -5 0
-10 13 -10 29 0 17 -5 33 -10 36 -16 10 -5 20 24 21 16 1 26 -3 26 -12z m141
-4 l19 25 0 -47 c0 -27 -4 -48 -9 -48 -5 0 -7 10 -3 23 5 20 4 21 -12 8 -15
-13 -19 -13 -27 0 -7 11 -9 9 -9 -8 0 -13 -4 -23 -10 -23 -5 0 -10 21 -10 48
l1 47 20 -25 21 -24 19 24z m83 -1 c-3 -5 -10 -7 -15 -4 -16 11 -10 -7 8 -20
9 -7 14 -19 10 -29 -7 -18 -42 -22 -52 -6 -3 6 4 10 17 10 21 1 22 2 6 14 -18
13 -24 37 -12 48 9 9 44 -3 38 -13z m-1534 2 c0 -5 -10 -11 -22 -13 -28 -4
-30 -32 -3 -35 11 -2 14 0 7 3 -6 3 -10 10 -6 15 10 18 24 9 24 -16 0 -20 -5
-25 -25 -25 -31 0 -50 32 -35 60 11 20 60 29 60 11z m710 -1 c0 -5 -12 -10
-26 -10 -33 0 -30 -33 4 -38 12 -2 20 -8 17 -13 -9 -14 -41 -11 -55 6 -20 24
3 65 35 65 14 0 25 -4 25 -10z m175 -24 c0 -36 -26 -56 -49 -37 -31 26 -11 75
29 69 15 -2 20 -11 20 -32z m495 29 c0 -3 -10 -10 -22 -15 -18 -7 -19 -9 -5
-9 9 -1 17 -5 17 -10 0 -5 -8 -12 -17 -14 -14 -4 -12 -5 5 -6 33 -2 27 -21 -8
-21 -28 0 -30 2 -30 40 0 38 2 40 30 40 17 0 30 -2 30 -5z m-806 -137 c15 -13
29 -38 32 -55 6 -28 1 -38 -29 -68 -44 -44 -78 -46 -118 -6 -20 20 -29 39 -29
61 0 42 47 90 89 90 17 0 41 -10 55 -22z m-182 -43 c10 -22 9 -29 -10 -47 -18
-19 -25 -20 -47 -10 -44 20 -28 82 22 82 15 0 27 -9 35 -25z m328 9 c17 -20 2
-67 -23 -72 -22 -4 -57 25 -57 48 0 38 55 55 80 24z"/>
<path d="M1378 2600 c-286 -48 -523 -280 -578 -567 -20 -101 -9 -283 23 -371
56 -159 159 -288 300 -376 82 -51 187 -92 250 -98 l38 -3 -1 273 c0 241 1 272
15 272 14 0 16 -30 13 -275 l-3 -275 23 0 c21 0 22 4 22 70 0 57 3 70 16 70
13 0 15 -11 12 -70 -3 -67 -2 -70 20 -70 l22 0 0 275 c0 240 2 275 15 275 14
0 15 -34 13 -276 l-3 -276 44 7 c204 31 429 198 520 387 91 189 101 359 35
556 -64 190 -209 346 -393 422 -129 53 -276 71 -403 50z m64 -283 c3 -239 2
-257 -14 -257 -17 0 -18 19 -18 258 0 142 3 262 7 266 18 17 22 -28 25 -267z
m68 228 c0 -33 -4 -45 -15 -45 -11 0 -15 12 -15 45 0 33 4 45 15 45 11 0 15
-12 15 -45z m70 -220 c0 -229 -2 -265 -15 -265 -13 0 -15 36 -15 265 0 229 2
265 15 265 13 0 15 -36 15 -265z m86 224 c43 -11 54 -25 34 -45 -20 -20 -47
-83 -39 -91 16 -16 -2 -78 -26 -89 -22 -11 -23 -10 -27 63 -5 72 0 173 9 173
2 0 24 -5 49 -11z m-286 -19 c0 -23 -5 -24 -49 -9 -37 13 -25 29 22 29 20 0
27 -5 27 -20z m-104 -13 c-11 -7 -27 -20 -37 -29 -17 -16 -49 -15 -49 2 0 4
21 14 48 23 56 19 63 20 38 4z m69 -32 c33 -32 31 -57 -5 -93 -44 -45 -40 -78
15 -132 41 -40 57 -70 38 -70 -4 0 -29 21 -55 47 -42 42 -48 52 -48 90 0 32
-6 48 -26 68 -30 30 -27 68 8 98 27 23 44 22 73 -8z m467 8 c14 -12 18 -31 18
-80 0 -54 -4 -68 -24 -88 -19 -19 -24 -36 -28 -94 -4 -78 -18 -103 -81 -155
-30 -24 -40 -27 -50 -17 -10 10 -8 15 8 25 11 6 37 28 58 49 35 36 37 41 37
104 0 57 -3 69 -25 89 -35 32 -40 131 -8 166 20 23 71 23 95 1z m-304 -65 c-4
-59 -28 -63 -28 -4 0 35 4 46 16 46 12 0 14 -9 12 -42z m405 6 c26 -20 47 -37
47 -38 0 0 -23 -1 -50 -1 -38 0 -50 4 -50 15 0 8 -3 25 -6 38 -9 31 5 28 59
-14z m-709 3 c8 -13 7 -24 -6 -48 -30 -52 -23 -72 42 -132 55 -49 60 -58 60
-95 0 -34 5 -44 30 -62 17 -12 30 -28 30 -36 0 -22 -12 -17 -52 21 -32 28 -38
41 -38 74 0 36 -5 43 -55 83 -50 39 -55 46 -55 82 0 27 -7 47 -22 63 -18 20
-20 26 -10 49 9 19 18 25 39 22 14 -2 31 -11 37 -21z m-104 -31 c0 -20 -6 -25
-34 -28 -39 -4 -39 9 2 35 34 21 32 21 32 -7z m862 -43 c38 -34 24 -113 -22
-128 -16 -5 -20 -15 -20 -56 0 -27 -6 -64 -14 -82 -17 -43 -90 -105 -135 -117
-53 -14 -121 -11 -121 6 0 8 10 14 23 14 134 1 217 67 217 174 0 39 -5 53 -25
72 -33 31 -33 73 1 114 22 26 32 30 53 25 14 -4 33 -13 43 -22z m-702 -34 c0
-32 -19 -39 -40 -14 -10 13 -10 19 5 35 22 25 35 17 35 -21z m123 -2 c-5 -32
-8 -35 -24 -26 -11 5 -19 14 -19 20 0 10 42 50 47 45 1 -1 0 -19 -4 -39z
m-283 13 c11 -11 20 -31 20 -44 0 -13 -9 -35 -20 -49 -25 -31 -27 -114 -4
-162 8 -18 33 -45 54 -60 32 -22 48 -26 91 -24 34 2 54 -1 57 -9 3 -9 -16 -12
-65 -12 -58 0 -75 4 -103 25 -56 41 -70 71 -70 150 0 67 -1 71 -30 87 -24 13
-30 24 -30 49 0 62 58 91 100 49z m410 -35 c0 -33 -4 -45 -15 -45 -11 0 -15
12 -15 45 0 33 4 45 15 45 11 0 15 -12 15 -45z m552 -19 c30 -42 36 -61 16
-53 -25 9 -57 -12 -76 -50 -11 -21 -29 -47 -41 -57 -21 -19 -21 -19 -21 12 0
18 8 40 18 50 30 31 47 74 46 118 -1 38 1 42 14 31 9 -6 28 -30 44 -51z
m-1087 -58 c-10 -19 -23 -22 -49 -12 -18 7 -8 33 28 72 l21 24 5 -34 c3 -18 1
-41 -5 -50z m715 62 c11 -11 20 -27 20 -35 0 -8 -9 -24 -20 -35 -11 -11 -20
-33 -20 -49 0 -23 -8 -34 -35 -50 -37 -21 -49 -12 -16 11 31 22 36 63 12 94
-17 21 -19 30 -9 48 21 40 39 45 68 16z m168 -137 c-20 -74 -63 -111 -148
-128 l-35 -7 49 37 c55 43 76 84 76 153 0 71 18 82 46 27 20 -37 21 -49 12
-82z m-838 -12 c0 -102 12 -125 79 -156 43 -19 54 -35 24 -35 -34 0 -98 45
-115 80 -24 47 -26 200 -3 200 12 0 15 -17 15 -89z m492 24 c1 -36 2 -73 2
-82 1 -10 -7 -19 -16 -21 -16 -3 -18 6 -18 82 0 70 3 86 15 86 12 0 15 -15 17
-65z m-292 47 c0 -12 -88 -14 -95 -2 -4 6 13 10 44 10 28 0 51 -4 51 -8z m123
-10 c10 -10 14 -22 10 -25 -3 -4 6 -21 22 -37 16 -16 26 -33 22 -36 -11 -12
-67 37 -73 64 -3 15 -7 33 -10 40 -5 18 10 15 29 -6z m755 -4 c18 -18 15 -57
-6 -83 -12 -15 -19 -43 -21 -76 -1 -39 -7 -59 -23 -76 l-21 -23 81 0 c66 0 82
-3 82 -15 0 -13 -37 -15 -276 -15 -216 0 -275 3 -272 13 4 9 53 13 183 17
l179 5 23 34 c27 41 32 121 8 141 -18 15 -20 61 -3 78 7 7 21 12 33 12 12 0
26 -5 33 -12z m-1136 -33 c9 -20 7 -29 -7 -52 -29 -43 -22 -122 13 -150 25
-22 36 -23 180 -23 129 0 152 -2 152 -15 0 -13 -31 -15 -228 -14 -125 0 -234
-1 -242 -3 -8 -2 -16 5 -18 15 -3 15 5 17 68 17 l71 0 -20 26 c-15 19 -21 41
-21 79 0 38 -4 55 -15 59 -18 7 -20 57 -3 74 21 21 57 14 70 -13z m278 14 c0
-12 -118 -10 -126 3 -3 4 24 8 60 8 40 0 66 -4 66 -11z m0 -54 c0 -24 -6 -35
-25 -43 -50 -23 -95 -9 -95 28 0 13 10 16 50 14 28 -2 50 2 50 7 0 5 -16 9
-35 9 -19 0 -35 5 -35 10 0 6 20 9 45 8 44 -1 45 -2 45 -33z m760 -27 c-2 -49
-124 -153 -172 -146 -19 2 -14 8 33 35 57 32 99 78 99 107 0 9 8 16 20 16 11
0 20 -6 20 -12z m-1110 -68 c0 -51 -18 -77 -46 -66 -13 5 -15 15 -10 52 3 24
11 54 17 65 17 33 39 5 39 -51z m414 31 c33 -35 26 -38 -69 -30 -38 3 -57 6
-42 7 15 1 38 13 50 26 29 31 29 31 61 -3z m840 13 c21 -8 21 -43 0 -51 -8 -3
-23 1 -31 10 -9 8 -13 23 -10 31 7 17 16 19 41 10z m-1168 -22 c-3 -5 4 -23
15 -41 24 -39 21 -46 -9 -25 -23 16 -32 74 -11 74 5 0 8 -4 5 -8z m1050 -20
c-11 -33 -55 -74 -74 -69 -14 4 -13 6 6 12 12 4 22 13 22 19 0 14 42 68 48 62
2 -3 1 -13 -2 -24z m-398 -127 c2 -85 -1 -132 -9 -141 -8 -10 -40 -14 -120
-14 -138 0 -139 1 -138 150 0 57 5 112 10 122 8 14 26 18 112 20 151 4 141 14
145 -137z m517 84 c-4 -5 -12 -9 -20 -9 -7 0 -15 -3 -18 -7 -2 -5 -2 -2 0 5 1
8 3 20 3 28 0 12 4 12 20 4 11 -6 18 -15 15 -21z m-795 -5 c0 -8 -9 -14 -20
-14 -22 0 -28 26 -7 33 16 6 27 -1 27 -19z m0 -59 c0 -8 -9 -15 -20 -15 -11 0
-20 7 -20 15 0 8 9 15 20 15 11 0 20 -7 20 -15z m-2 -62 c-3 -17 -25 -18 -271
-21 -238 -3 -267 -1 -267 13 0 14 27 15 250 13 138 -2 250 0 250 5 0 4 9 7 21
7 14 0 19 -5 17 -17z m847 -5 c0 -10 -62 -14 -272 -16 -255 -2 -273 -1 -273
15 0 17 18 18 272 16 211 -2 273 -6 273 -15z m-847 -61 c2 -10 -3 -17 -12 -17
-18 0 -29 16 -21 31 9 14 29 6 33 -14z m332 3 c0 -11 -7 -20 -15 -20 -8 0 -15
9 -15 20 0 11 7 20 15 20 8 0 15 -9 15 -20z m-437 -1 c47 -12 81 -39 105 -84
15 -26 17 -65 17 -265 0 -150 -4 -235 -10 -235 -6 0 -12 64 -15 163 l-5 163
-64 59 c-55 52 -69 60 -102 60 -52 0 -50 17 4 23 40 4 45 2 106 -57 l63 -61
-4 58 c-5 61 -23 95 -72 131 -26 20 -39 21 -237 18 -195 -3 -209 -2 -209 15 0
17 15 18 190 21 118 2 206 -2 233 -9z m945 -6 c-3 -16 -22 -18 -215 -20 -234
-2 -253 -6 -295 -65 -22 -32 -23 -42 -28 -262 -4 -177 -8 -230 -18 -234 -11
-3 -13 41 -10 234 3 228 4 241 26 275 25 42 62 69 107 80 16 4 121 7 233 8
189 1 203 0 200 -16z m-293 -53 c74 -28 36 -155 -41 -136 -13 4 -31 17 -40 31
-23 35 -76 34 -111 -1 -28 -28 -38 -26 -28 5 11 36 34 51 80 51 35 0 45 4 50
21 4 11 16 24 28 29 29 12 32 12 62 0z m-1032 -26 c-15 -24 -17 -25 -24 -8 -6
19 6 34 29 34 9 0 8 -7 -5 -26z m105 1 c16 -34 15 -40 -4 -59 -24 -24 -61 -20
-80 9 -15 23 -15 27 0 50 23 35 69 34 84 0z m134 8 c39 -35 7 -98 -48 -91 -18
2 -34 13 -43 29 -13 24 -13 29 2 53 20 30 61 35 89 9z m158 0 c29 -20 40 -33
40 -51 0 -8 -14 -4 -37 13 -25 17 -51 25 -79 25 -25 0 -47 6 -54 15 -11 13 -5
15 47 15 39 0 67 -6 83 -17z m732 -65 c-5 -87 -7 -97 -21 -82 -13 15 -1 164
13 164 9 0 11 -22 8 -82z m123 58 c17 -26 11 -54 -17 -74 -14 -10 -18 -26 -18
-67 0 -43 -5 -59 -26 -85 -45 -52 -66 -58 -194 -53 -109 5 -116 4 -135 -16
-16 -19 -19 -35 -17 -107 1 -68 -1 -84 -13 -84 -21 0 -21 159 0 199 19 37 31
41 124 41 78 0 78 0 73 25 -2 14 3 37 13 52 l18 28 -27 -24 c-17 -16 -26 -20
-26 -11 0 9 -8 5 -21 -9 -16 -17 -28 -21 -48 -16 -76 19 -77 18 -110 -21 -25
-31 -31 -35 -31 -19 0 11 9 35 20 53 15 25 27 32 50 32 17 0 39 6 50 12 14 9
27 10 47 2 35 -13 93 -1 110 22 7 10 13 13 13 8 0 -6 -4 -14 -10 -20 -7 -7 1
-14 24 -22 42 -15 52 -39 29 -64 -23 -26 -57 -20 -61 11 -4 22 -1 23 30 18 31
-6 32 -6 14 8 -17 13 -23 13 -40 1 -29 -19 -31 -41 -7 -65 17 -17 25 -19 48
-10 15 5 40 24 55 41 23 26 28 41 28 84 0 34 -5 56 -15 64 -20 16 -19 49 2 72
22 25 49 23 68 -6z m45 -24 c-17 -55 -19 -56 -15 -12 2 25 4 46 4 48 1 2 5 1
10 -3 6 -3 6 -16 1 -33z m-650 -17 c0 -33 -4 -45 -15 -45 -11 0 -15 12 -15 45
0 33 4 45 15 45 11 0 15 -12 15 -45z m-610 -75 c0 -6 63 -10 154 -10 153 0
155 0 187 -27 49 -42 59 -77 59 -214 0 -92 -3 -120 -12 -117 -9 3 -15 42 -18
129 -8 193 -15 199 -222 199 l-148 0 -19 38 c-10 20 -22 48 -26 62 -6 19 -1
16 19 -13 14 -21 26 -42 26 -47z m298 23 c43 -10 32 -20 -16 -15 -54 5 -57 7
-47 22 4 6 14 8 24 4 9 -3 26 -9 39 -11z m842 -38 c0 -34 -14 -54 -25 -35 -9
14 6 81 16 74 5 -3 9 -20 9 -39z m-240 25 c0 -15 -49 -31 -84 -28 l-31 3 30
17 c33 19 85 24 85 8z m-290 -85 c0 -33 -4 -45 -15 -45 -11 0 -15 12 -15 45 0
33 4 45 15 45 11 0 15 -12 15 -45z m-288 -23 c21 -21 23 -32 23 -137 1 -63 -1
-115 -2 -115 -20 0 -155 81 -190 113 -44 41 -133 149 -133 162 0 4 63 5 140 3
130 -3 141 -5 162 -26z m288 -113 c0 -28 -4 -39 -15 -39 -11 0 -15 12 -15 45
0 35 3 43 15 39 10 -4 15 -20 15 -45z m307 7 c24 -21 26 -27 18 -52 -14 -39
-57 -54 -85 -29 -27 24 -26 70 2 89 29 21 32 20 65 -8z m111 7 c51 -6 52 -6
35 -25 -20 -22 -107 -88 -117 -88 -3 0 0 11 6 25 8 19 8 31 0 50 -22 49 -20
50 76 38z m-149 -144 c-27 -17 -49 -10 -49 15 0 24 1 24 31 9 23 -12 28 -18
18 -24z"/>
<path d="M1272 2468 c-17 -17 -15 -42 6 -61 25 -23 39 -21 57 7 13 19 14 29 5
45 -12 23 -49 28 -68 9z m56 -24 c4 -31 -22 -49 -42 -29 -12 13 -14 21 -5 36
13 25 43 21 47 -7z"/>
<path d="M1732 2478 c-7 -7 -12 -38 -12 -70 0 -53 2 -60 26 -70 41 -19 58 -1
62 66 2 34 -2 64 -9 72 -14 17 -51 18 -67 2z m57 -22 c25 -30 -16 -67 -44 -40
-18 19 -19 26 -3 42 16 16 33 15 47 -2z m-4 -86 c0 -8 -10 -16 -22 -18 -18 -3
-23 2 -23 18 0 16 5 21 23 18 12 -2 22 -10 22 -18z"/>
<path d="M1877 2342 c-21 -23 -22 -56 -1 -76 27 -27 62 -19 82 20 26 49 -43
98 -81 56z m61 -31 c5 -30 -10 -45 -37 -36 -21 6 -29 43 -14 59 15 15 48 1 51
-23z"/>
<path d="M1032 2331 c-18 -11 -11 -61 11 -75 22 -14 51 3 55 33 6 40 -32 64
-66 42z m52 -44 c-8 -22 -43 -22 -51 -1 -9 25 26 49 44 31 8 -7 11 -21 7 -30z"/>
<path d="M1644 2265 c-7 -18 3 -35 21 -35 15 0 24 19 18 38 -6 17 -32 15 -39
-3z"/>
<path d="M1140 2100 c0 -13 50 -13 70 0 11 7 4 10 -27 10 -24 0 -43 -4 -43
-10z"/>
<path d="M1397 2013 c-4 -3 -7 -57 -7 -119 l0 -112 28 -5 c39 -8 165 -3 180 6
13 9 18 190 6 221 -5 13 -24 16 -103 16 -54 0 -101 -3 -104 -7z m157 -45 c22
-31 22 -156 1 -165 -20 -7 -34 6 -17 16 8 4 -10 8 -40 9 -29 0 -47 -2 -40 -4
19 -9 14 -24 -8 -24 -18 0 -20 7 -20 83 0 51 5 88 12 95 7 7 31 12 54 12 33 0
47 -5 58 -22z"/>
<path d="M1446 1945 c-9 -34 -8 -35 49 -35 51 0 55 2 55 24 0 22 -5 24 -49 28
-43 3 -51 0 -55 -17z"/>
<path d="M1842 1714 c-24 -17 -29 -53 -10 -72 19 -19 55 -14 72 10 20 29 20
34 -4 58 -24 24 -29 24 -58 4z m51 -26 c7 -21 -4 -38 -23 -38 -23 0 -34 16
-26 35 7 18 43 20 49 3z"/>
<path d="M1034 1706 c-11 -28 1 -51 25 -51 32 0 49 28 32 49 -17 20 -50 21
-57 2z m46 -21 c0 -19 -20 -29 -32 -17 -15 15 -2 43 17 36 8 -3 15 -12 15 -19z"/>
<path d="M1790 1551 c0 -11 4 -22 8 -25 14 -9 35 12 29 28 -9 23 -37 20 -37
-3z"/>
<path d="M997 1502 c-26 -29 -20 -50 22 -76 21 -14 41 -36 45 -49 3 -14 18
-32 32 -42 23 -15 33 -16 65 -6 53 16 73 49 66 108 -3 32 -12 53 -27 65 -25
20 -90 24 -122 7 -14 -8 -23 -8 -31 0 -16 16 -32 14 -50 -7z m43 -7 c17 -20 5
-45 -20 -45 -11 0 -23 7 -26 15 -6 15 11 45 26 45 4 0 13 -7 20 -15z m149 -11
c12 -15 21 -38 21 -51 0 -32 -42 -73 -75 -73 -33 0 -75 42 -75 75 0 14 11 37
25 50 33 34 77 33 104 -1z"/>
<path d="M1096 1467 c-19 -28 -11 -61 17 -74 50 -23 93 26 63 72 -21 32 -60
33 -80 2z m72 -23 c2 -11 -4 -26 -12 -33 -31 -26 -71 14 -45 45 17 21 53 14
57 -12z"/>
<path d="M1756 1384 c-19 -18 -19 -20 -6 -45 17 -31 70 -18 70 17 0 14 -27 44
-40 44 -5 0 -16 -7 -24 -16z m44 -23 c0 -11 -5 -23 -11 -27 -15 -9 -33 12 -26
30 9 23 37 20 37 -3z"/>
<path d="M1015 966 c-98 -98 34 -239 137 -147 70 62 24 171 -73 171 -29 0 -47
-7 -64 -24z m120 -32 c33 -35 31 -59 -5 -95 -23 -24 -35 -28 -57 -23 -62 14
-82 76 -38 119 32 33 70 32 100 -1z"/>
<path d="M1630 945 c0 -9 -9 -33 -20 -55 -11 -22 -20 -42 -20 -45 0 -3 25 -5
54 -5 l55 0 -27 60 c-27 58 -42 75 -42 45z"/>
<path d="M1820 620 c0 -23 25 -27 33 -6 7 16 -1 26 -20 26 -7 0 -13 -9 -13
-20z"/>
<path d="M1451 494 c-26 -33 -27 -58 -1 -84 57 -57 150 15 103 79 -29 38 -74
40 -102 5z m83 -15 c27 -39 -13 -91 -54 -69 -26 14 -32 40 -15 66 19 30 49 31
69 3z"/>
<path d="M918 2588 c-17 -6 -28 -17 -28 -28 0 -10 -6 -21 -12 -24 -22 -8 22
-36 58 -36 33 0 44 13 44 53 0 31 -28 46 -62 35z m40 -20 c16 -16 15 -23 -4
-42 -12 -12 -20 -13 -35 -6 -10 6 -19 16 -19 23 0 16 20 37 35 37 6 0 16 -5
23 -12z"/>
<path d="M2480 1770 c-8 -5 -46 -11 -85 -12 -49 -1 -57 -3 -27 -5 23 -2 40 -8
37 -13 -3 -4 11 -10 30 -12 27 -3 36 0 41 14 6 21 37 24 53 4 6 -7 8 -21 5
-30 -5 -14 -16 -16 -63 -12 -31 3 -47 3 -36 0 11 -3 24 -10 30 -15 13 -13 59
-11 73 3 13 13 16 47 4 64 -11 17 -45 25 -62 14z"/>
<path d="M2335 1630 c-34 -16 -36 -19 -16 -19 14 -1 33 7 43 16 17 15 20 15
34 2 8 -9 12 -23 8 -32 -5 -14 -16 -16 -67 -11 -70 6 -61 -9 12 -20 38 -6 48
-4 66 16 20 21 21 25 7 46 -17 26 -34 27 -87 2z"/>
<path d="M2264 1447 c16 -13 27 -30 24 -37 -2 -8 -14 -4 -35 14 -17 14 -39 26
-49 25 -16 0 -15 -2 4 -10 30 -12 50 -32 62 -63 13 -36 53 -53 84 -37 41 23
15 97 -35 99 -15 0 -40 8 -56 17 l-28 17 29 -25z m80 -43 c20 -19 20 -28 1
-44 -17 -14 -43 -7 -51 15 -6 15 11 45 27 45 4 0 15 -7 23 -16z"/>
<path d="M883 1214 c-57 -55 -62 -63 -31 -45 l36 20 16 -24 c22 -33 56 -42 73
-19 18 24 16 59 -3 78 -8 9 -16 25 -17 36 -1 11 -2 20 -4 20 -1 0 -33 -30 -70
-66z m87 -9 c18 -21 5 -45 -25 -45 -27 0 -41 20 -31 45 7 19 40 19 56 0z"/>
<path d="M2042 1260 c2 -8 -6 -23 -19 -34 -30 -23 -27 -53 10 -80 l29 -21 22
28 c26 33 35 33 72 5 47 -37 8 7 -59 65 -33 28 -58 45 -55 37z m33 -50 c11
-17 -5 -50 -24 -50 -28 0 -46 26 -31 45 14 17 46 20 55 5z"/>
</g>
</svg>
